# xmcd CD database file
# Copyright (C) 1996 Ti Kan
#
# Track frame offsets:
#	150
#	11564
#	25225
#	39973
#	53636
#	67946
#	79805
#	90913
#	103353
#	117267
#	128967
#	140495
#	152634
#	166146
#	179503
#	190311
#	203994
#	215143
#	227241
#	242409
#	254683
# Disc length: 3554 seconds
#
# Revision: 5
# Processed by: cddbd v1.5.2PL0 Copyright (c) Steve Scherf et al.
# Submitted via: CDCOPY 4.900
#
DISCID=230de015
DTITLE=The Clovers - Down In The Alley - The Best Of The Clovers
DYEAR=1900
DGENRE=R&B
TTITLE0=One Mint Julep
TTITLE1=Good Lovin'
TTITLE2=Don't You Know I Love You
TTITLE3=Wonder Where My Baby's Gone
TTITLE4=Ting-A-Ling
TTITLE5=Crawlin'
TTITLE6=Hey, Miss Fannie
TTITLE7=Lovey Dovey
TTITLE8=Middle Of The Night
TTITLE9=Fool, Fool, Fool
TTITLE10=I'Ve Got My Eyes On You
TTITLE11=I Confess
TTITLE12=Your Cash Ain't Nothin' But Trash
TTITLE13=Little Mama
TTITLE14=Down In The Alley
TTITLE15=Nip Sip
TTITLE16=Devil Or Angel
TTITLE17=Blue Velvet
TTITLE18=In The Morning Time
TTITLE19=Love Bug
TTITLE20=If I Could Be Loved By You
EXTD=ID3G: 14
EXTT0=
EXTT1=
EXTT2=
EXTT3=
EXTT4=
EXTT5=
EXTT6=
EXTT7=
EXTT8=
EXTT9=
EXTT10=
EXTT11=
EXTT12=
EXTT13=
EXTT14=
EXTT15=
EXTT16=
EXTT17=
EXTT18=
EXTT19=
EXTT20=
PLAYORDER=
